<?xml version="1.0" encoding="utf-8"?>
<!-- Generator: Adobe Illustrator 22.1.0, SVG Export Plug-In . SVG Version: 6.00 Build 0)  -->
<svg version="1.1" id="Layer_1" xmlns="http://www.w3.org/2000/svg" xmlns:xlink="http://www.w3.org/1999/xlink" x="0px" y="0px"
	 viewBox="0 0 15.8 16" style="enable-background:new 0 0 15.8 16;" xml:space="preserve">
<style type="text/css">
	.st0{fill:#222222;}
</style>
<g>
	<path class="st0" d="M0.2,6.9C0.1,6.8,0,6.6,0,6.5V5.1c0-0.2,0.1-0.3,0.2-0.4s0.2-0.2,0.4-0.2h14.6c0.2,0,0.3,0.1,0.4,0.2
		s0.2,0.2,0.2,0.4v1.4c0,0.2-0.1,0.3-0.2,0.4S15.4,7,15.2,7H0.6C0.4,7,0.3,7,0.2,6.9z M0.2,15.9C0.1,15.8,0,15.6,0,15.5v-1.4
		c0-0.2,0.1-0.3,0.2-0.4s0.2-0.2,0.4-0.2h14.6c0.2,0,0.3,0.1,0.4,0.2s0.2,0.2,0.2,0.4v1.4c0,0.2-0.1,0.3-0.2,0.4S15.4,16,15.2,16
		H0.6C0.4,16,0.3,16,0.2,15.9z M5.8,2.4C5.9,2.5,6,2.5,6.2,2.5h9c0.2,0,0.3-0.1,0.4-0.2s0.2-0.2,0.2-0.4V0.6c0-0.2-0.1-0.3-0.2-0.4
		S15.4,0,15.2,0h-9C6,0,5.9,0.1,5.8,0.2S5.6,0.4,5.6,0.6V2C5.6,2.1,5.7,2.3,5.8,2.4z M5.8,11.4c-0.1-0.1-0.2-0.2-0.2-0.4V9.6
		c0-0.2,0.1-0.3,0.2-0.4S6,9,6.2,9h9c0.2,0,0.3,0.1,0.4,0.2s0.2,0.2,0.2,0.4V11c0,0.2-0.1,0.3-0.2,0.4s-0.2,0.2-0.4,0.2h-9
		C6,11.5,5.9,11.5,5.8,11.4z"/>
</g>
</svg>
